<?xml version="1.0" encoding="UTF-8" standalone="no"?>
<!-- Created with Inkscape (http://www.inkscape.org/) -->

<svg
   xmlns:dc="http://purl.org/dc/elements/1.1/"
   xmlns:cc="http://creativecommons.org/ns#"
   xmlns:rdf="http://www.w3.org/1999/02/22-rdf-syntax-ns#"
   xmlns:svg="http://www.w3.org/2000/svg"
   xmlns="http://www.w3.org/2000/svg"
   xmlns:sodipodi="http://sodipodi.sourceforge.net/DTD/sodipodi-0.dtd"
   xmlns:inkscape="http://www.inkscape.org/namespaces/inkscape"
   width="240.45676mm"
   height="69.990448mm"
   viewBox="0 0 240.45676 69.990448"
   version="1.1"
   id="svg8"
   inkscape:version="0.92.3 (2405546, 2018-03-11)"
   sodipodi:docname="logo.svg">
  <defs
     id="defs2" />
  <sodipodi:namedview
     id="base"
     pagecolor="#ffffff"
     bordercolor="#666666"
     borderopacity="1.0"
     inkscape:pageopacity="0.0"
     inkscape:pageshadow="2"
     inkscape:zoom="0.35"
     inkscape:cx="640.12075"
     inkscape:cy="209.40827"
     inkscape:document-units="mm"
     inkscape:current-layer="layer1"
     showgrid="false"
     fit-margin-top="-0.6"
     fit-margin-left="0"
     fit-margin-right="0"
     fit-margin-bottom="0"
     inkscape:window-width="1024"
     inkscape:window-height="735"
     inkscape:window-x="0"
     inkscape:window-y="0"
     inkscape:window-maximized="1" />
  <metadata
     id="metadata5">
    <rdf:RDF>
      <cc:Work
         rdf:about="">
        <dc:format>image/svg+xml</dc:format>
        <dc:type
           rdf:resource="http://purl.org/dc/dcmitype/StillImage" />
        <dc:title></dc:title>
      </cc:Work>
    </rdf:RDF>
  </metadata>
  <g
     inkscape:label="Layer 1"
     inkscape:groupmode="layer"
     id="layer1"
     transform="translate(63.531949,-134.24882)">
    <g
       transform="matrix(0.25224176,0,0,0.25224176,-105.33949,57.978123)"
       id="g6500">
      <path
         style="opacity:1;fill:#ce0101;fill-opacity:1;stroke:none;stroke-width:1.62583447;stroke-linecap:square;stroke-linejoin:round;stroke-miterlimit:4;stroke-dasharray:3.25166891, 1.62583445;stroke-dashoffset:0;stroke-opacity:1"
         d="m 252.56503,578.89987 -36.89345,-0.35418 v -57.37077 -57.37076 h 114.77963 114.77962 v 58.02047 58.02047 l -77.88617,-0.29552 c -42.8374,-0.16254 -94.48823,-0.45491 -114.77963,-0.64971 z m 74.87074,-23.75634 c 0.64373,-6.64863 0.87606,-12.2084 0.51629,-12.35505 -0.35978,-0.14664 -5.47314,0.0429 -11.36303,0.42127 l -10.70889,0.68789 -0.91905,6.93723 c -0.50547,3.81547 -1.1804,8.75477 -1.49984,10.97621 l -0.5808,4.03899 7.16348,0.45245 c 3.93991,0.24885 9.20151,0.55977 11.69244,0.69094 l 4.52897,0.2385 z m 74.64616,0.33882 10.05005,-11.7496 0.9169,-11.58472 0.91689,-11.58471 -23.15289,-0.0172 c -12.7341,-0.009 -24.48791,-0.37462 -26.11958,-0.81143 -2.83156,-0.75804 -2.94535,-1.21687 -2.49811,-10.07357 0.42032,-8.32358 0.85897,-9.66973 4.25871,-13.06948 l 3.79013,-3.79012 11.79228,0.83704 11.79228,0.83704 -0.69535,6.7373 -0.69535,6.73729 h 11.73014 11.73015 l 0.72816,-4.72993 c 0.40048,-2.60146 1.11867,-9.69635 1.59597,-15.76643 l 0.86783,-11.0365 H 389.4308 359.77146 l -9.76052,10.75102 -9.76052,10.75102 -1.72903,15.42126 c -0.95096,8.48169 -2.04632,17.26593 -2.43413,19.52053 l -0.7051,4.09927 h 26.54476 26.54476 l -0.0399,2.83796 c -0.022,1.56087 -1.41368,4.39883 -3.0928,6.30657 l -3.05292,3.46861 H 357.62993 332.9738 v 4.25694 c 0,2.34132 -0.35225,6.01816 -0.78277,8.17078 l -0.78277,3.91384 24.43241,0.37198 c 13.43783,0.20459 27.07814,0.50089 30.3118,0.65843 l 5.87938,0.28644 z m -104.4249,8.14171 c 0,-1.29063 0.36094,-4.97997 0.8021,-8.19855 l 0.8021,-5.85196 h -26.65905 c -20.52312,0 -26.64318,-0.36288 -26.59012,-1.57664 0.0379,-0.86715 1.90722,-17.06617 4.15403,-35.99782 2.24681,-18.93164 3.82396,-34.68231 3.5048,-35.00147 -0.31917,-0.31917 -5.29943,-0.58031 -11.06723,-0.58031 -9.85189,0 -10.52424,0.17185 -11.10309,2.83796 -0.54802,2.52407 -10.78373,84.1282 -10.78373,85.97317 0,0.40821 17.31154,0.7422 38.47009,0.7422 36.6672,0 38.4701,-0.10997 38.4701,-2.34658 z m 140.49964,-3.014 c 0.35656,-2.94833 0.94807,-8.05665 1.31447,-11.35184 l 0.66617,-5.99124 h -11.2427 c -12.49332,0 -11.80189,-0.52536 -13.28005,10.09052 -0.43468,3.12175 -1.08882,7.23679 -1.45367,9.14453 l -0.66336,3.46861 h 12.00542 12.00542 z"
         id="path5429"
         inkscape:connector-curvature="0" />
      <path
         style="opacity:1;fill:#2b2c5b;fill-opacity:1;stroke:#000000;stroke-width:0.28740966;stroke-linecap:square;stroke-linejoin:round;stroke-miterlimit:4;stroke-dasharray:0.57481928, 0.28740964;stroke-dashoffset:0;stroke-opacity:1"
         d="m 505.8025,546.77844 7.99843,-27.9903 -6.45462,-20.44526 c -3.55004,-11.24489 -6.42084,-20.47904 -6.37955,-20.52033 0.0413,-0.0413 4.27461,0.051 9.40737,0.20514 l 9.33231,0.2802 4.07826,12.61162 c 2.24304,6.93639 4.78357,14.79976 5.64563,17.47416 0.86206,2.6744 1.65666,4.83164 1.76579,4.79388 0.10913,-0.0378 7.40101,-7.88968 16.20418,-17.44868 16.43947,-17.85095 16.5414,-17.95204 17.84139,-17.69428 0.21783,0.0432 -5.97524,7.04124 -17.04457,19.26004 l -17.38671,19.19219 -8.53063,28.63509 c -4.69184,15.7493 -8.59803,28.70779 -8.68042,28.79666 -0.0824,0.0889 -2.5554,0.26201 -5.4956,0.38477 -2.9402,0.12275 -6.46043,0.27544 -7.82275,0.33929 l -2.47694,0.1161 z"
         id="path5527"
         inkscape:connector-curvature="0" />
      <path
         style="opacity:1;fill:#2b2c5b;fill-opacity:1;stroke:#000000;stroke-width:0.28740966;stroke-linecap:square;stroke-linejoin:round;stroke-miterlimit:4;stroke-dasharray:0.57481928, 0.28740964;stroke-dashoffset:0;stroke-opacity:1"
         d="m 589.55815,574.46983 c 0,-0.0417 2.1053,-8.14417 4.67845,-18.00548 2.57315,-9.86131 4.65514,-17.95047 4.62665,-17.97591 -0.0828,-0.0739 -27.89006,-0.77014 -30.61829,-0.76662 l -2.47213,0.003 -5.22037,17.94608 -5.22037,17.94608 -7.60806,0.003 -7.60806,0.003 0.7434,-2.6199 c 6.79649,-23.95239 16.39373,-57.54945 17.15874,-60.06763 3.75144,-12.34856 8.68671,-18.93758 19.51521,-26.05455 5.20706,-3.4223 11.71737,-5.55018 19.82881,-6.481 5.23971,-0.60128 11.71363,0.48873 16.10205,2.71109 2.9269,1.48222 7.28636,5.43102 9.1941,8.32801 1.94899,2.95965 2.93269,6.90305 2.72853,10.93801 -0.12228,2.41663 -0.27431,2.97533 -10.34532,38.01655 l -10.22123,35.56388 -1.44361,0.13793 c -1.66312,0.15891 -13.8185,0.48798 -13.8185,0.3741 z m 16.80612,-59.84261 5.54609,-20.41917 -0.27552,-1.70794 c -0.92718,-5.74757 -3.80847,-9.65071 -8.27778,-11.21351 -1.17504,-0.41088 -1.89184,-0.49667 -4.09967,-0.49065 -3.00018,0.008 -5.52668,0.55024 -8.67654,1.86153 -8.0211,3.33919 -14.61473,14.46964 -19.29695,32.57441 -0.89511,3.46112 -4.01868,17.84484 -4.02209,18.52126 -4.4e-4,0.0842 -0.32686,0.18454 -0.72542,0.22297 l -0.72466,0.0699 0.7804,0.48321 0.7804,0.48321 16.72283,0.017 16.72282,0.017 5.54609,-20.41918 z"
         id="path5545"
         inkscape:connector-curvature="0" />
      <path
         style="opacity:1;fill:#2b2c5b;fill-opacity:1;stroke:#000000;stroke-width:0.28740966;stroke-linecap:square;stroke-linejoin:round;stroke-miterlimit:4;stroke-dasharray:0.57481928, 0.28740964;stroke-dashoffset:0;stroke-opacity:1"
         d="m 655.81842,550.41294 c -2.12527,-13.28288 -4.01183,-24.43633 -4.19237,-24.78545 -0.18054,-0.34912 -0.47373,-0.6906 -0.65155,-0.75883 -0.57294,-0.21986 -1.35362,0.12078 -1.62082,0.70722 -0.26004,0.57071 -4.55499,15.58339 -10.58824,37.0104 l -3.20191,11.37152 -7.74753,0.0587 -7.74754,0.0587 0.13919,-0.61608 c 0.0765,-0.33885 6.2921,-21.93769 13.81233,-47.99743 l 13.67315,-47.38134 10.56561,0.0865 c 5.81108,0.0476 15.63491,0.1479 21.83073,0.22297 l 11.26512,0.13649 1.47165,0.72468 c 1.80517,0.88893 4.43516,3.54629 5.23169,5.28615 1.18576,2.59003 1.50549,4.39596 1.52152,8.59377 0.0139,3.64635 -0.0276,4.05537 -0.63293,6.24319 -1.4807,5.35114 -3.28135,8.82964 -7.39033,14.27664 -3.84123,5.09206 -9.86534,9.36861 -14.25895,10.12251 -1.71364,0.29405 -6.23932,0.79657 -7.1738,0.79657 -0.16265,0 -0.29573,0.14214 -0.29573,0.31588 0,0.17373 -0.11992,0.35585 -0.2665,0.40471 -0.19247,0.0642 0.61418,5.4123 2.90339,19.24983 l 3.1699,19.16099 1.13595,2.3412 c 1.45408,2.99688 2.81565,5.09578 4.34748,6.70175 l 1.21793,1.27686 -1.73891,0.13077 c -0.9564,0.0719 -6.0534,0.19403 -11.32667,0.27134 l -9.58775,0.14057 z m 6.53976,-28.19035 c 2.38158,-0.31296 2.84868,-0.45008 4.24993,-1.24753 2.55574,-1.45448 4.47109,-3.01645 7.75907,-6.32755 4.67142,-4.70426 6.56265,-7.48593 8.13423,-11.96406 0.73292,-2.08839 1.02242,-3.4684 1.35666,-6.467 0.19048,-1.70888 0.15505,-2.19658 -0.30774,-4.23645 -0.86085,-3.79439 -2.19363,-6.77385 -4.25937,-9.52188 -1.70925,-2.27381 -3.83694,-2.80967 -10.56183,-2.66 -4.57084,0.10173 -5.28882,0.26985 -6.30381,1.4761 -0.77263,0.91821 -0.77968,0.9405 -4.31489,13.64036 -1.6898,6.07038 -4.01233,14.34818 -5.1612,18.3951 -1.21516,4.28045 -2.03764,7.5667 -1.96642,7.85691 0.15696,0.63961 0.9159,1.1322 2.14889,1.39472 1.27777,0.27206 5.85833,0.1039 9.22648,-0.33872 z"
         id="path5547"
         inkscape:connector-curvature="0" />
      <path
         style="opacity:1;fill:#2b2c5b;fill-opacity:1;stroke:#000000;stroke-width:0.40645862;stroke-linecap:square;stroke-linejoin:round;stroke-miterlimit:4;stroke-dasharray:0.81291723, 0.40645861;stroke-dashoffset:0;stroke-opacity:1"
         d="m 694.97868,573.88957 c 0.004,-0.0617 6.21747,-21.53876 13.80707,-47.72681 l 13.79927,-47.61462 16.80317,-0.0816 16.80318,-0.0816 2.20167,0.76567 c 5.86874,2.04094 10.34321,5.77939 13.04504,10.89921 3.65867,6.93298 4.34945,10.09876 4.37084,20.0312 0.0288,13.34768 -2.36482,20.26815 -12.61053,36.46056 -6.78922,10.72973 -10.06529,14.09369 -20.29756,20.84205 -6.21219,4.09705 -8.31813,4.9702 -14.34745,5.94861 -1.98991,0.32292 -33.59488,0.84757 -33.5747,0.55735 z m 28.05229,-2.06129 c 2.51224,-0.69246 3.07253,-1.0355 9.0926,-5.56692 7.42302,-5.58744 10.31606,-8.75937 15.45902,-16.94926 3.77783,-6.016 5.68892,-9.87004 7.88266,-15.89678 4.62036,-12.69323 4.75166,-13.34441 4.99378,-24.76609 0.1572,-7.4158 0.10604,-9.07397 -0.35024,-11.35183 -0.62944,-3.14229 -2.07416,-6.65753 -3.81718,-9.2878 -1.50359,-2.26896 -4.71788,-5.73601 -6.39594,-6.89891 l -1.21675,-0.84321 -5.63693,0.0863 -5.63692,0.0863 -12.85037,44.93433 c -7.06771,24.71388 -12.94092,45.39055 -13.05158,45.94815 l -0.20121,1.01381 3.42281,0.10132 c 4.29583,0.12715 6.11934,-0.007 8.30625,-0.60944 z"
         id="path5555"
         inkscape:connector-curvature="0" />
      <path
         style="opacity:1;fill:#2b2c5b;fill-opacity:1;stroke:#000000;stroke-width:0.40645862;stroke-linecap:square;stroke-linejoin:round;stroke-miterlimit:4;stroke-dasharray:0.81291723, 0.40645861;stroke-dashoffset:0;stroke-opacity:1"
         d="m 836.09272,573.89962 c -4.1652,-0.60682 -7.40853,-1.94008 -10.00234,-4.11174 -1.14909,-0.96208 -1.84343,-1.93263 -2.75523,-3.85128 -1.57506,-3.31429 -2.86347,-7.43621 -2.86347,-9.16086 0,-1.12395 1.14846,-7.02758 1.76867,-9.0918 0.14017,-0.46653 0.56091,-0.55182 2.72215,-0.55182 h 2.55634 l -0.65228,0.70949 c -1.53564,1.67032 -3.19517,4.73886 -3.71908,6.87675 -1.23278,5.03043 0.0305,9.41935 3.65554,12.69978 3.89135,3.52147 8.15433,5.02153 14.32268,5.03989 4.48893,0.0134 5.25895,-0.23196 10.766,-3.42987 6.03338,-3.50354 9.28212,-7.1576 12.62666,-14.20197 1.47204,-3.10046 1.4822,-3.14445 1.48649,-6.43276 0.007,-5.28333 -1.20698,-7.54549 -5.59812,-10.43268 -3.00511,-1.97588 -4.88699,-2.5376 -9.50584,-2.83739 -4.96892,-0.32252 -8.2709,-1.11998 -11.82482,-2.85582 -7.68566,-3.7539 -12.33975,-13.00816 -11.07862,-22.02887 1.03807,-7.42509 4.23038,-13.82533 9.81058,-19.66914 6.00902,-6.29288 12.56362,-9.98432 20.81841,-11.72459 3.33375,-0.70281 10.54797,-0.79755 13.7168,-0.18014 7.52726,1.46662 12.17733,5.49353 13.88409,12.02349 0.57865,2.21387 0.76146,7.09553 0.35722,9.53869 l -0.24783,1.49781 h -4.09481 -4.09481 l 0.94267,-1.18248 c 5.02305,-6.3009 5.4414,-12.63907 1.06203,-16.09011 -1.69301,-1.33413 -4.69169,-2.77751 -7.04545,-3.39126 -2.79212,-0.72805 -8.82823,-0.50387 -11.39887,0.42336 -7.03408,2.53717 -14.40331,8.00084 -17.35046,12.8639 -2.28699,3.77372 -3.41686,8.92527 -2.77227,12.63988 0.20491,1.18082 0.63869,2.75011 0.96395,3.48732 0.88916,2.01529 3.49376,4.58369 5.75972,5.67968 2.43398,1.17726 4.12474,1.56014 8.7408,1.97937 7.8191,0.71014 11.73441,2.40205 16.88856,7.29798 1.47594,1.402 2.49784,2.68392 2.91165,3.65254 0.93645,2.19196 2.27338,8.52383 2.27338,10.76702 0,5.28256 -3.09282,14.07809 -6.55165,18.63196 -4.95531,6.52412 -12.63379,11.8859 -20.09086,14.0292 -4.92059,1.41427 -12.05416,2.01781 -16.38758,1.38647 z"
         id="path5557"
         inkscape:connector-curvature="0" />
      <path
         style="opacity:1;fill:#2b2c5b;fill-opacity:1;stroke:#000000;stroke-width:0.40645862;stroke-linecap:square;stroke-linejoin:round;stroke-miterlimit:4;stroke-dasharray:0.81291723, 0.40645861;stroke-dashoffset:0;stroke-opacity:1"
         d="m 931.21358,573.24122 c 1.00833,-3.49039 9.01393,-34.51011 8.92645,-34.58776 -0.28493,-0.25292 -32.80148,-0.84454 -33.02534,-0.60088 -0.14327,0.15596 -2.58257,8.26531 -5.42065,18.02079 l -5.16016,17.73723 h -7.52599 -7.52599 l 0.21438,-0.86715 c 1.44382,-5.8404 18.5147,-64.72272 19.44409,-67.06824 3.11267,-7.85545 7.23259,-13.15364 14.32085,-18.41655 5.73568,-4.25866 10.47751,-6.3878 17.80295,-7.99377 4.34842,-0.95332 12.54904,-1.04083 15.76643,-0.16824 4.92371,1.33535 8.50649,3.3553 11.71035,6.60224 4.23468,4.29161 5.77849,7.93424 5.7859,13.65182 l 0.005,3.46861 -10.23727,35.55176 -10.23726,35.55175 -0.9569,0.14292 c -0.5263,0.0786 -3.96224,0.21329 -7.63543,0.29931 l -6.67852,0.15641 0.42762,-1.48025 z m 11.17961,-39.08319 c 0.1812,-0.65037 2.70139,-9.88359 5.60042,-20.51828 l 5.27096,-19.3358 -0.50369,-2.42188 c -1.91545,-9.20999 -8.27849,-12.80689 -17.91782,-10.1286 -5.81764,1.61644 -10.28117,5.50336 -14.31889,12.46917 -4.09919,7.07185 -7.65213,18.05983 -10.74636,33.23465 -1.38824,6.80825 -1.30833,6.55951 -2.149,6.68861 -0.64978,0.0998 -0.63356,0.14094 0.2514,0.63801 0.85295,0.47909 2.58056,0.53259 17.56475,0.54397 l 16.61877,0.0126 0.32946,-1.18249 z"
         id="path5559"
         inkscape:connector-curvature="0" />
      <path
         style="opacity:1;fill:#2b2c5b;fill-opacity:1;stroke:#000000;stroke-width:0.40645862;stroke-linecap:square;stroke-linejoin:round;stroke-miterlimit:4;stroke-dasharray:0.81291723, 0.40645861;stroke-dashoffset:0;stroke-opacity:1"
         d="m 962.05581,573.85622 c 8.7e-4,-0.0434 6.08642,-21.57636 13.52345,-47.85112 l 13.52187,-47.77229 7.60357,-0.0844 c 4.182,-0.0464 7.6036,-0.0144 7.6036,0.0713 0,0.0857 -5.88565,20.94543 -13.07918,46.35503 -7.19354,25.4096 -13.17432,46.57843 -13.29062,47.04183 l -0.21147,0.84255 14.06843,-0.18563 14.06844,-0.18563 1.5083,-1.0247 c 0.8296,-0.56359 2.3329,-1.65286 3.3408,-2.42062 1.0078,-0.76775 1.8953,-1.33301 1.9722,-1.25613 0.077,0.0769 -0.3774,1.58178 -1.0096,3.34422 l -1.1493,3.20444 h -24.23601 c -13.32983,0 -24.23534,-0.0355 -24.23448,-0.0788 z"
         id="path5561"
         inkscape:connector-curvature="0" />
      <path
         style="opacity:1;fill:#2b2c5b;fill-opacity:1;stroke:#000000;stroke-width:0.40645862;stroke-linecap:square;stroke-linejoin:round;stroke-miterlimit:4;stroke-dasharray:0.81291723, 0.40645861;stroke-dashoffset:0;stroke-opacity:1"
         d="m 1026.9018,574.01413 c -5.2844,-0.0702 -6.8582,-0.18194 -6.7543,-0.47948 0.074,-0.21336 6.1547,-21.76284 13.5116,-47.88773 l 13.3762,-47.49981 14.3475,-0.1893 c 7.8911,-0.10411 19.2149,-0.25551 25.164,-0.33643 10.0784,-0.1371 10.8059,-0.1105 10.661,0.38981 -0.085,0.29532 -0.6049,2.00539 -1.1543,3.80016 l -0.9989,3.26322 -0.8872,-1.55345 c -0.4879,-0.8544 -1.3998,-2.00358 -2.0264,-2.55373 l -1.1393,-1.00027 -14.4153,0.004 -14.4153,0.004 -6.596,23.56647 c -3.6278,12.96156 -6.6583,23.74384 -6.7345,23.96063 -0.1079,0.30713 1.3137,0.39444 6.4383,0.39544 3.6173,6.3e-4 8.3886,0.0937 10.603,0.20662 3.8988,0.19883 4.0198,0.22623 3.8236,0.86587 -0.1114,0.3633 -0.2204,0.68348 -0.2422,0.71152 -0.022,0.028 -4.8554,0.27941 -10.7413,0.5586 -5.886,0.27919 -10.7518,0.55767 -10.8129,0.61884 -0.1276,0.12753 -11.3959,40.6832 -11.3257,40.76227 0.025,0.0286 6.3735,0.22923 14.1071,0.44588 l 14.061,0.39389 1.8284,-1.04611 c 1.0056,-0.57537 2.31,-1.46891 2.8985,-1.98565 0.5885,-0.51675 1.1177,-0.88519 1.1759,-0.81875 0.058,0.0664 -0.2496,1.3624 -0.6839,2.87992 l -0.7897,2.75913 -17.6946,-0.0724 c -9.732,-0.0398 -20.795,-0.11355 -24.5843,-0.1639 z"
         id="path5563"
         inkscape:connector-curvature="0" />
      <path
         style="opacity:1;fill:#000000;fill-opacity:1;stroke:none;stroke-width:1.14963865;stroke-linecap:square;stroke-linejoin:round;stroke-miterlimit:4;stroke-dasharray:2.29927714, 1.14963857;stroke-dashoffset:0;stroke-opacity:1"
         d="m 324.21433,440.49614 c -14.12482,-14.53812 -36.76634,-27.26076 -56.96627,-32.0103 -11.20098,-2.63365 -29.26031,-3.87414 -46.88445,-3.22051 -8.58439,0.31838 -16.81202,0.81818 -18.28362,1.11067 -2.52809,0.50248 -2.57728,0.45958 -0.89189,-0.77785 3.3489,-2.45881 18.34552,-7.91357 27.24185,-9.90875 4.88461,-1.09548 9.35314,-2.46381 9.93008,-3.04074 1.53312,-1.53312 -2.43607,-2.96412 -23.96833,-8.64124 -10.2052,-2.69066 -22.16703,-6.03451 -26.58186,-7.43077 -9.90656,-3.13312 -23.18023,-8.50709 -21.99132,-8.90339 0.48388,-0.1613 9.24202,1.51236 19.46252,3.71924 10.22049,2.20688 24.00091,4.63348 30.62315,5.39245 22.4119,2.56859 69.86213,5.77839 100.33696,6.78735 33.49278,1.10887 41.58875,0.97561 42.13979,-0.69361 0.22496,-0.68145 -5.43504,-3.8736 -14.89565,-8.40093 -8.39217,-4.01602 -14.94514,-7.57163 -14.56218,-7.90134 0.68959,-0.59371 39.98642,-17.03741 52.87152,-22.12401 14.05599,-5.54882 53.81665,-18.07758 70.90478,-22.34241 32.11359,-8.01485 40.73111,-9.81637 64.21565,-13.4245 38.62171,-5.93378 43.52221,-6.31287 81.62152,-6.31407 31.13496,-9.8e-4 36.10418,0.20882 53.06711,2.24042 25.14818,3.01193 31.1646,4.11029 56.36462,10.28995 22.51164,5.5204 46.92356,13.5642 65.07685,21.44302 5.79878,2.51676 15.76076,6.69078 22.13773,9.27559 12.08359,4.8979 56.0428,25.68407 75.42405,35.66435 23.91064,12.31268 34.76472,14.58956 81.10161,17.01288 27.45537,1.43586 70.12885,6.49708 89.18845,10.57805 22.7566,4.8726 42.4632,11.70815 65.4746,22.71092 13.4241,6.41866 17.1801,9.45766 6.3114,5.10664 -17.7026,-7.08682 -69.2212,-18.89233 -86.8442,-19.90034 -11.5588,-0.66117 -11.664,0.2591 -0.6985,6.11079 7.1584,3.82008 16.2877,10.33991 15.5338,11.09377 -0.1764,0.17634 -4.5128,-0.88693 -9.6367,-2.36283 -5.1238,-1.47591 -15.7375,-3.51714 -23.5861,-4.53609 -12.00193,-1.55816 -17.03453,-1.76782 -31.66188,-1.31903 -23.23437,0.71287 -35.22861,3.13367 -54.29015,10.95741 -4.10643,1.68547 -7.60496,2.92576 -7.77452,2.7562 -0.63072,-0.63072 11.6176,-9.71231 17.33902,-12.85613 10.67314,-5.8647 11.45447,-7.58401 4.36789,-9.61161 -19.18604,-5.48945 -70.15829,-7.35871 -136.68123,-5.01235 -33.09833,1.16742 -96.48358,1.18792 -144.93116,0.0468 -161.29299,-3.79881 -284.9808,-8.37328 -337.43093,-12.47955 -11.6919,-0.91535 -21.82593,-1.44634 -22.52007,-1.17998 -2.42399,0.93018 -1.58162,2.16348 4.98114,7.29281 12.06331,9.42846 21.49093,20.55902 27.19889,32.11188 1.78192,3.6066 3.08952,6.70779 2.90577,6.89155 -0.18374,0.18375 -2.31663,-1.70647 -4.73974,-4.20047 z m 432.17161,-37.41285 c 27.86244,-2.40292 40.13478,-6.68131 40.13478,-13.9918 0,-5.46918 -5.08268,-9.35313 -19.07959,-14.57974 -10.35506,-3.86669 -10.16166,-4.11588 1.37865,-1.77638 10.93752,2.2173 29.78573,9.76577 31.56229,12.6403 0.33512,0.54225 -0.63984,2.27472 -2.16659,3.84993 -3.15472,3.25485 -3.45773,5.0087 -1.21512,7.03331 4.64963,4.19765 16.06884,3.89645 28.61726,-0.7548 9.8173,-3.63894 12.42336,-7.56032 7.8683,-11.83958 -5.22642,-4.90996 -75.2346,-40.47178 -94.33035,-47.91667 -28.01316,-10.92152 -64.62414,-19.38666 -98.35043,-22.74043 -12.95866,-1.28862 -97.18585,-0.58848 -110.70109,0.9202 -28.69117,3.20275 -64.97925,11.64686 -99.18506,23.08003 -28.73139,9.60337 -65.36755,24.22575 -65.36755,26.08979 0,1.3318 6.28026,4.05778 16.94579,7.35543 40.58851,12.54944 91.35693,22.28988 132.89073,25.49646 53.57004,4.13583 95.75078,6.42707 140.0258,7.60614 47.42063,1.26285 72.3547,1.13343 90.97218,-0.47219 z"
         id="path6485"
         inkscape:connector-curvature="0" />
      <path
         style="opacity:1;fill:#000000;fill-opacity:1;stroke:none;stroke-width:0.07185242;stroke-linecap:square;stroke-linejoin:round;stroke-miterlimit:4;stroke-dasharray:0.14370482, 0.07185241;stroke-dashoffset:0;stroke-opacity:1"
         d="m 763.33338,402.90058 c 0.092,-0.0117 1.00755,-0.10877 2.03461,-0.21564 2.13355,-0.22202 5.23684,-0.60146 7.27443,-0.88945 10.65724,-1.50628 17.562,-3.39471 21.12948,-5.77886 1.07574,-0.71891 1.49966,-1.06423 2.34243,-1.9081 1.3356,-1.33735 1.9775,-2.55254 2.14305,-4.05709 0.30669,-2.78708 -1.77758,-5.82343 -5.9309,-8.64012 -2.31271,-1.56842 -4.23576,-2.54656 -7.25342,-3.68935 -9.0257,-3.41804 -15.56852,-5.66899 -19.54558,-6.72433 -0.59358,-0.15751 -1.3928,-0.38925 -1.77603,-0.51497 -0.66881,-0.2194 -0.68895,-0.23046 -0.50168,-0.27557 0.1073,-0.0258 0.50865,-0.0509 0.89188,-0.0557 0.75968,-0.009 1.2301,0.0578 5.96448,0.85237 7.47482,1.25455 14.96881,2.66138 16.33262,3.06609 6.17763,1.83318 15.97112,5.71278 22.21349,8.79965 1.97602,0.97715 2.77504,1.46831 3.38972,2.08368 1.09337,1.09459 1.1261,2.20768 0.10437,3.54958 -0.41581,0.54611 -1.48421,1.55552 -2.0169,1.90553 -0.2606,0.17124 -0.62232,0.42666 -0.80383,0.56762 -0.1815,0.14095 -0.34188,0.24441 -0.35638,0.2299 -0.0284,-0.0284 0.4493,-0.57543 1.2251,-1.40309 1.24999,-1.33353 2.08008,-2.64902 2.14864,-3.40506 0.0293,-0.3228 0.0256,-0.33337 -0.2171,-0.63138 -1.97059,-2.4193 -15.13961,-8.02987 -26.0773,-11.11006 -2.51867,-0.70929 -4.01885,-1.06123 -7.24656,-1.70006 -4.39048,-0.86897 -6.47375,-1.20219 -6.87942,-1.10037 -0.65029,0.16321 0.87347,0.84954 7.13026,3.21161 6.91346,2.60998 10.75278,4.39799 13.8242,6.43811 3.77583,2.508 5.48941,5.05009 5.49044,8.14504 3.9e-4,1.11812 -0.19375,1.93448 -0.68721,2.88995 -2.47648,4.7952 -12.1422,8.07287 -30.09113,10.20398 -1.49252,0.17721 -1.75584,0.19336 -3.02881,0.18573 -0.7668,-0.005 -1.31892,-0.018 -1.22695,-0.0297 z"
         id="path6487"
         inkscape:connector-curvature="0" />
    </g>
  </g>
</svg>
